<svg xmlns="http://www.w3.org/2000/svg" viewBox="0 0 1323.94 747.92"><defs><style>.cls-1{fill:#ffff35;}</style></defs><g id="Layer_2" data-name="Layer 2"><g id="Layer_1-2" data-name="Layer 1"><path class="cls-1" d="M917,214c-11.43,50.79-41.92,186.2-160,268-59.92,41.51-121.49,54.73-174,66-92.32,19.82-160.7,12-177,10-34.36-4.33-80.18-10.55-131-39-27.67-15.49-63.22-35.39-85-77-18.71-35.75-18.9-71.53-19-91-.23-43.95,12.09-48.19,10-96a312.25,312.25,0,0,0-13-74c-4.46-14.83-9.23-30.38-20-49-5.1-8.82-15.39-26.32-33-42,0,0-29.51-26.28-70-34-12.29-2.34-27.78.49-45,7.63V639c35.9,18.89,70.24,33.58,97,45,351,150.17,701.58-5.87,794-47,138.06-61.45,389.48-173.35,428-394,19.73-113-25-205.39-41-235q-2.19-4.05-4.48-8H920.62C941.16,102.05,923.06,187.09,917,214Z"/></g></g></svg>