<svg xmlns="http://www.w3.org/2000/svg" xmlns:xlink="http://www.w3.org/1999/xlink" viewBox="0 0 1318 851.09"><defs><style>.cls-1{isolation:isolate;}.cls-2{fill:#745300;}.cls-3{fill:#926900;}.cls-4{fill:#1b82ff;}.cls-13,.cls-16,.cls-17,.cls-18,.cls-19,.cls-20,.cls-5,.cls-9{fill:#f2f2f2;}.cls-5{opacity:0.4;}.cls-6{fill:#009245;}.cls-7{fill:#ed1e79;}.cls-8{fill:#a67c52;}.cls-9{opacity:0.77;font-size:60px;}.cls-16,.cls-17,.cls-18,.cls-19,.cls-20,.cls-9{font-family:Ravie;}.cls-10{fill:#9e005d;}.cls-11{fill:#1b1464;}.cls-12{fill:#8cc63f;}.cls-13,.cls-21{opacity:0.7;}.cls-14{fill:#c69c6d;}.cls-15{fill:#998675;}.cls-16,.cls-18,.cls-19,.cls-20{opacity:0.8;}.cls-16{font-size:60.51px;}.cls-17{font-size:45.2px;}.cls-18{font-size:45.47px;}.cls-19{font-size:46.99px;}.cls-20{font-size:53.27px;}.cls-21{mix-blend-mode:multiply;fill:url(#linear-gradient);}</style><linearGradient id="linear-gradient" x1="659" y1="851.09" x2="659" y2="357.09" gradientUnits="userSpaceOnUse"><stop offset="0" stop-color="#fff" stop-opacity="0"/><stop offset="0.87" stop-color="#565656" stop-opacity="0.46"/><stop offset="1" stop-opacity="0.7"/></linearGradient></defs><g class="cls-1"><g id="Layer_2" data-name="Layer 2"><g id="Layer_1-2" data-name="Layer 1"><rect class="cls-2" y="307.59" width="1118.5" height="68.38" rx="12.56"/><rect class="cls-3" x="0.91" y="307.59" width="1117.59" height="34.38" rx="11.29"/><path class="cls-4" d="M243,17.4V296.78c0,5.69-6.07,10.31-13.54,10.31H179.54c-7.47,0-13.54-4.62-13.54-10.31V17.4c0-5.69,6.07-10.31,13.54-10.31h49.92C236.93,7.09,243,11.71,243,17.4Z"/><rect class="cls-5" x="166" y="69.07" width="77" height="15.97"/><rect class="cls-5" x="166" y="226.27" width="77" height="19.69"/><path class="cls-6" d="M309.29,11.5,356.44,292c1,5.72-3.31,11-9.53,11.7l-41.52,4.94c-6.22.74-12.05-3.3-13-9L245.24,19.13c-1-5.72,3.31-11,9.52-11.7l41.53-4.94C302.5,1.75,308.33,5.79,309.29,11.5Z"/><polygon class="cls-5" points="314.62 45.41 318.84 69.34 254.8 77.26 250.58 53.33 314.62 45.41"/><polygon class="cls-5" points="343.48 216.4 347.68 241.22 284.47 252.53 280.26 227.7 343.48 216.4"/><path class="cls-7" d="M508.71,30.23,431.56,298.74c-1.57,5.47-8.68,8.24-15.86,6.17l-48-13.78c-7.18-2.07-11.74-8.18-10.17-13.65L434.71,9c1.57-5.47,8.68-8.23,15.86-6.17l48,13.79C505.73,18.64,510.28,24.76,508.71,30.23Z"/><rect class="cls-5" x="423.2" y="43.47" width="61.18" height="77" transform="translate(249.69 495.47) rotate(-73.97)"/><polygon class="cls-5" points="451.68 227.84 444.92 252.14 369.81 235.19 376.57 210.89 451.68 227.84"/><path class="cls-8" d="M576.23,16.14,559.62,299c-.34,5.76-5.64,9.9-11.83,9.24l-41.34-4.43c-6.19-.66-10.95-5.88-10.61-11.64L512.45,9.31c.34-5.76,5.64-9.9,11.84-9.24L565.63,4.5C571.82,5.16,576.57,10.38,576.23,16.14Z"/><polygon class="cls-5" points="573.05 62.65 570.76 97.44 507.32 89.72 509.48 54.77 573.05 62.65"/><polygon class="cls-5" points="563.49 235.4 562.57 255.96 498.3 250.05 499.21 229.5 563.49 235.4"/><text class="cls-9" transform="translate(180 173.62)">B</text><text class="cls-9" transform="translate(270.81 171.67) rotate(3.82)">O</text><text class="cls-9" transform="translate(405.17 172.86) rotate(-0.4)">O</text><text class="cls-9" transform="translate(504.66 170.38) rotate(4.18)">K</text><rect class="cls-10" x="597" y="258.09" width="366" height="49"/><rect class="cls-5" x="629" y="258.09" width="39" height="49"/><rect class="cls-5" x="877" y="258.09" width="39" height="49"/><rect class="cls-5" x="627.81" y="156.09" width="36.34" height="55.79"/><rect class="cls-5" x="858.87" y="156.09" width="36.34" height="55.79"/><path class="cls-11" d="M940,163.53v43.33c0,3.44-2.3,6.23-5.14,6.23H604.14c-2.84,0-5.14-2.79-5.14-6.23V163.53c0-3.44,2.3-6.23,5.14-6.23H934.86C937.7,157.3,940,160.09,940,163.53Z"/><rect class="cls-5" x="627.81" y="157.3" width="36.34" height="55.79"/><rect class="cls-5" x="858.87" y="157.3" width="36.34" height="55.79"/><path class="cls-12" d="M934,112.18v43.3a2,2,0,0,1-1.89,2.09H658.89a2,2,0,0,1-1.89-2.09v-43.3a2,2,0,0,1,1.89-2.09H932.11A2,2,0,0,1,934,112.18Z"/><rect class="cls-13" x="681.22" y="110.09" width="29.52" height="47.48"/><rect class="cls-13" x="868.91" y="110.09" width="29.52" height="47.48"/><path class="cls-14" d="M877,219.43V251.9c0,3.15-2.15,5.7-4.81,5.7H573.81c-2.66,0-4.81-2.55-4.81-5.7V219.43c0-3.15,2.15-5.7,4.81-5.7H872.19C874.85,213.73,877,216.28,877,219.43Z"/><rect class="cls-5" x="595.93" y="213.73" width="32.82" height="43.87"/><rect class="cls-5" x="795.63" y="213.73" width="32.82" height="43.87"/><path class="cls-15" d="M940.2,59.49v42.19c0,4.09-2.48,7.41-5.54,7.41H590.75c-3.06,0-5.55-3.32-5.55-7.41V59.49c0-4.09,2.49-7.4,5.55-7.4H934.66C937.72,52.09,940.2,55.4,940.2,59.49Z"/><rect class="cls-5" x="616.04" y="52.09" width="37.83" height="57"/><rect class="cls-5" x="846.21" y="52.09" width="37.83" height="57"/><text class="cls-16" transform="translate(738.43 103.04) scale(0.99 1)">S</text><text class="cls-17" transform="translate(776.28 150.35) scale(0.93 1)">T</text><text class="cls-18" transform="translate(738.62 200.27) scale(0.9 1)">O</text><text class="cls-19" transform="translate(690.54 253.85) scale(0.68 1)">R</text><text class="cls-20" transform="translate(754.35 303.3) scale(1.08 1)">E</text><rect class="cls-2" x="162" y="376.09" width="135" height="38" rx="12"/><rect class="cls-2" x="761" y="376.09" width="135" height="38" rx="12"/><polygon class="cls-21" points="1318 851.09 199 851.09 0 357.09 1119 357.09 1318 851.09"/></g></g></g></svg>