<svg xmlns="http://www.w3.org/2000/svg" xmlns:xlink="http://www.w3.org/1999/xlink" viewBox="0 0 1047 983.53"><defs><style>.cls-1{isolation:isolate;}.cls-2{fill:#00273a;}.cls-3{fill:#001a28;stroke:#000;}.cls-10,.cls-3,.cls-6,.cls-8{stroke-miterlimit:10;}.cls-4{fill:#c4c9cf;}.cls-5{fill:#dde9e6;}.cls-10,.cls-6,.cls-8{fill:none;stroke-width:10px;}.cls-6{stroke:#fff;}.cls-7{fill:#dcdcdc;}.cls-8{stroke:#fffffb;}.cls-9{fill:#fff;}.cls-10{stroke:#d4dbe2;}.cls-11,.cls-12{opacity:0.7;mix-blend-mode:multiply;}.cls-11{fill:url(#linear-gradient);}.cls-12{fill:url(#linear-gradient-2);}</style><linearGradient id="linear-gradient" x1="523.41" y1="971.9" x2="523.41" y2="669.49" gradientUnits="userSpaceOnUse"><stop offset="0" stop-color="#fff" stop-opacity="0"/><stop offset="0.9" stop-color="#3e3e3e" stop-opacity="0.45"/><stop offset="1" stop-opacity="0.6"/></linearGradient><linearGradient id="linear-gradient-2" x1="1047" y1="515.1" x2="773.11" y2="515.1" gradientUnits="userSpaceOnUse"><stop offset="0" stop-color="#fff" stop-opacity="0"/><stop offset="0.85" stop-color="#6e6e6e" stop-opacity="0.29"/><stop offset="1" stop-opacity="0.5"/></linearGradient></defs><g class="cls-1"><g id="Layer_2" data-name="Layer 2"><g id="Layer_1-2" data-name="Layer 1"><rect class="cls-2" y="37.13" width="787.52" height="649.69" rx="37.75"/><rect class="cls-3" x="366.84" y="37.13" width="52.59" height="649.69"/><rect class="cls-4" x="34.43" y="121.56" width="714.05" height="527.87" rx="25.5"/><path class="cls-5" d="M391.8,615.19l103-27.82a291.61,291.61,0,0,1,148.53,0l105.4,27.81,1.4-590.07L666.68,9.88A538,538,0,0,0,472.84,10L390.63,24Z"/><line class="cls-6" x1="563.76" y1="295.36" x2="708.09" y2="295.36"/><line class="cls-6" x1="563.76" y1="475.63" x2="708.09" y2="475.63"/><line class="cls-6" x1="563.76" y1="432.68" x2="708.09" y2="432.68"/><line class="cls-6" x1="563.76" y1="385.5" x2="708.09" y2="385.5"/><line class="cls-6" x1="563.76" y1="338.32" x2="708.09" y2="338.32"/><path class="cls-6" d="M419.43,546.32c92.92-15,189.36-14,288.66,0"/><rect class="cls-7" x="419.43" y="287.47" width="125.42" height="196.59" rx="12.21"/><path class="cls-6" d="M419.43,241c92.92-15,189.36-14,288.66,0"/><path class="cls-6" d="M419.43,201.32c92.92-15,189.36-14,288.66,0"/><path class="cls-6" d="M419.43,224.06c92.92-15,189.36-14,288.66,0"/><path class="cls-6" d="M419.43,178.76c92.92-15,189.36-14,288.66,0"/><path class="cls-8" d="M419.43,138.9c92.92-15,189.36-14,288.66,0"/><path class="cls-9" d="M391.8,615.19,287.49,587.31a284.17,284.17,0,0,0-146.87,0L36.31,615.19,34.92,24,117.46,8.75a525.83,525.83,0,0,1,191.77.13L390.63,24Z"/><path class="cls-10" d="M69,241c92.93-15,189.36-14,288.66,0"/><path class="cls-10" d="M66.3,195.89c92.93-15,189.36-14,288.66,0"/><path class="cls-10" d="M66.3,213.2c92.93-15,189.36-14,288.66,0"/><path class="cls-10" d="M66.3,173.33c92.93-15,189.36-14,288.66,0"/><path class="cls-10" d="M66.3,133.47c92.93-15,189.36-14,288.66,0"/><path class="cls-10" d="M63,540.89c92.92-15,189.36-14,288.66,0"/><path class="cls-10" d="M66.3,489.49c92.93-15,189.36-14,288.66,0"/><path class="cls-10" d="M69,440.21c92.93-15,189.36-14,288.66,0"/><path class="cls-7" d="M318,405l-105-5q-5.76-.27-11.52,0l-105,5c-9.27,0-16.78-8.31-16.78-18.56V288.81c0-10.25,7.51-18.56,16.78-18.56l97.74-7.49a169.06,169.06,0,0,1,26.05,0L318,270.25c9.27,0,16.78,8.31,16.78,18.56V386.4C334.82,396.65,327.31,405,318,405Z"/><polygon class="cls-11" points="1036.7 971.9 274.22 971.9 10.13 669.49 772.61 669.49 1036.7 971.9"/><polygon class="cls-12" points="1047 983.53 773.11 668.8 773.11 46.67 1047 361.41 1047 983.53"/></g></g></g></svg>