<svg xmlns="http://www.w3.org/2000/svg" xmlns:xlink="http://www.w3.org/1999/xlink" viewBox="0 0 1792.51 440.16"><defs><style>.cls-1{fill:url(#linear-gradient);}</style><linearGradient id="linear-gradient" x1="896.26" y1="440.16" x2="896.26" gradientUnits="userSpaceOnUse"><stop offset="0" stop-color="#fff"/><stop offset="0.05" stop-color="#ffffdf" stop-opacity="0.9"/><stop offset="0.18" stop-color="#ffff97" stop-opacity="0.69"/><stop offset="0.28" stop-color="#ffff62" stop-opacity="0.53"/><stop offset="0.35" stop-color="#ffff41" stop-opacity="0.44"/><stop offset="0.39" stop-color="#ffff35" stop-opacity="0.4"/><stop offset="0.5" stop-color="#ffff35" stop-opacity="0.5"/><stop offset="0.6" stop-color="#ffff35" stop-opacity="0.57"/><stop offset="0.68" stop-color="#ffff35" stop-opacity="0.6"/><stop offset="0.99" stop-color="#ffff35"/></linearGradient></defs><g id="Layer_2" data-name="Layer 2"><g id="Layer_1-2" data-name="Layer 1"><path class="cls-1" d="M1789,215.7l-279.61-207c-6.46-4.78-17-4.79-23.5,0L1359,102.28c-6.45,4.77-17,4.77-23.48,0L1208.72,8.79c-6.46-4.76-17-4.76-23.49,0l-126.83,93.5c-6.46,4.76-17,4.76-23.49,0L908.08,8.79c-6.46-4.76-17-4.76-23.49,0l-126.83,93.5c-6.46,4.76-17,4.76-23.49,0L607.44,8.79C601,4,590.41,4,584,8.79L461.55,99c-9.07,6.68-23.7,6.74-32.87.14C401.79,79.81,300,2.64,295,0c0,0-95,70.27-103.61,76.66L88.31,152.93,3.5,215.68a8.63,8.63,0,0,0,0,13.88l279.79,207c6.47,4.78,17,4.78,23.51,0l126.82-93.68c6.47-4.77,17-4.77,23.51,0l126.81,93.68c6.47,4.77,17,4.77,23.51,0l126.81-93.68c6.47-4.77,17-4.77,23.51,0l126.81,93.68c6.47,4.77,17,4.77,23.51,0l126.81-93.68c6.47-4.77,17-4.77,23.51,0l126.81,93.68c6.47,4.77,17,4.77,23.51,0l126.81-93.68c6.47-4.77,17-4.77,23.51,0l126.82,93.69c6.48,4.78,17.06,4.77,23.53,0l279.62-207A8.64,8.64,0,0,0,1789,215.7Z"/></g></g></svg>