<svg xmlns="http://www.w3.org/2000/svg" xmlns:xlink="http://www.w3.org/1999/xlink" viewBox="0 0 1290.39 1290.39"><defs><style>.cls-1{isolation:isolate;}.cls-2{opacity:0.25;fill:url(#radial-gradient);}.cls-10,.cls-11,.cls-12,.cls-13,.cls-14,.cls-15,.cls-16,.cls-2,.cls-3,.cls-4,.cls-5,.cls-7,.cls-8,.cls-9{mix-blend-mode:screen;}.cls-3{fill:url(#radial-gradient-2);}.cls-4{fill:url(#radial-gradient-3);}.cls-5{opacity:0.2;fill:url(#radial-gradient-4);}.cls-10,.cls-6{fill:none;}.cls-7{opacity:0.15;fill:url(#radial-gradient-5);}.cls-11,.cls-8{opacity:0.5;}.cls-8{fill:url(#radial-gradient-6);}.cls-9{fill:url(#radial-gradient-7);}.cls-10{stroke:#ffff03;stroke-miterlimit:10;stroke-width:2px;opacity:0.03;}.cls-11{fill:url(#radial-gradient-8);}.cls-12{fill:url(#radial-gradient-9);}.cls-13{fill:url(#radial-gradient-10);}.cls-14{fill:url(#radial-gradient-11);}.cls-15{fill:url(#radial-gradient-12);}.cls-16{fill:url(#radial-gradient-13);}</style><radialGradient id="radial-gradient" cx="621.83" cy="666.26" r="407.78" gradientTransform="translate(0.3 -0.3) rotate(0.03)" gradientUnits="userSpaceOnUse"><stop offset="0.1" stop-color="#ff0"/><stop offset="0.2" stop-color="#ff0"/><stop offset="0.8" stop-color="#ff0"/><stop offset="1" stop-color="#ff0"/></radialGradient><radialGradient id="radial-gradient-2" cx="748.49" cy="552.06" r="13.59" gradientTransform="translate(0.3 -0.3) rotate(0.03)" gradientUnits="userSpaceOnUse"><stop offset="0" stop-color="#ffff03"/><stop offset="0.05" stop-color="#ffff03"/><stop offset="1" stop-color="#ff0"/></radialGradient><radialGradient id="radial-gradient-3" cx="738.64" cy="560.94" r="13.59" xlink:href="#radial-gradient-2"/><radialGradient id="radial-gradient-4" cx="733.97" cy="565.15" r="101.94" gradientTransform="translate(0.3 -0.3) rotate(0.03)" gradientUnits="userSpaceOnUse"><stop offset="0.05" stop-color="#ff0"/><stop offset="0.75" stop-color="#ff0"/><stop offset="0.86" stop-color="#ff0"/><stop offset="0.99" stop-color="#ff0"/><stop offset="1" stop-color="#ff0"/></radialGradient><radialGradient id="radial-gradient-5" cx="645.19" cy="645.19" r="271.85" gradientTransform="translate(0.3 -0.3) rotate(0.03)" gradientUnits="userSpaceOnUse"><stop offset="0" stop-color="#ff0"/><stop offset="0.73" stop-color="#ff0"/><stop offset="1" stop-color="#ff0"/></radialGradient><radialGradient id="radial-gradient-6" cx="645.19" cy="645.19" r="135.93" gradientTransform="translate(0.3 -0.3) rotate(0.03)" gradientUnits="userSpaceOnUse"><stop offset="0.15" stop-color="#ffff03"/><stop offset="0.45" stop-color="#ff0"/><stop offset="0.85" stop-color="#ff0"/><stop offset="0.9" stop-color="#ff0"/><stop offset="0.91" stop-color="#ff0"/><stop offset="1" stop-color="#ff0"/></radialGradient><radialGradient id="radial-gradient-7" cx="645.19" cy="645.19" r="113.27" gradientTransform="translate(0.3 -0.3) rotate(0.03)" gradientUnits="userSpaceOnUse"><stop offset="0.15" stop-color="#ffff03"/><stop offset="1" stop-color="#ff0"/></radialGradient><radialGradient id="radial-gradient-8" cx="738.64" cy="560.94" r="203.89" gradientTransform="translate(0.3 -0.3) rotate(0.03)" gradientUnits="userSpaceOnUse"><stop offset="0.64" stop-color="#ff0"/><stop offset="0.78" stop-color="#ff0"/><stop offset="0.8" stop-color="#ff0"/><stop offset="0.86" stop-color="#ff0"/><stop offset="0.88" stop-color="#ff0"/><stop offset="1" stop-color="#ff0"/></radialGradient><radialGradient id="radial-gradient-9" cx="720.18" cy="577.59" r="13.3" gradientTransform="translate(0.3 -0.3) rotate(0.03)" gradientUnits="userSpaceOnUse"><stop offset="0.1" stop-color="#ff0"/><stop offset="0.13" stop-color="#ff0"/><stop offset="1" stop-color="#ff0"/></radialGradient><radialGradient id="radial-gradient-10" cx="631.64" cy="657.41" r="9.69" xlink:href="#radial-gradient-9"/><radialGradient id="radial-gradient-11" cx="722.81" cy="575.21" r="33.53" xlink:href="#radial-gradient-9"/><radialGradient id="radial-gradient-12" cx="627.87" cy="660.81" r="22.71" xlink:href="#radial-gradient-9"/><radialGradient id="radial-gradient-13" cx="699.71" cy="596.04" r="4.14" xlink:href="#radial-gradient-9"/></defs><g class="cls-1"><g id="Layer_2" data-name="Layer 2"><g id="Layer_1-2" data-name="Layer 1"><circle class="cls-2" cx="621.82" cy="666.25" r="407.78"/><circle class="cls-3" cx="748.54" cy="552.1" r="13.59"/><circle class="cls-4" cx="738.68" cy="560.98" r="13.59"/><circle class="cls-5" cx="734.01" cy="565.19" r="101.95"/><line class="cls-6" x1="645.19" y1="645.19" x2="738.68" y2="560.98"/><circle class="cls-7" cx="645.19" cy="645.19" r="271.85"/><circle class="cls-8" cx="645.19" cy="645.19" r="135.93"/><circle class="cls-9" cx="645.19" cy="645.19" r="113.27"/><polyline class="cls-10" points="645.19 645.19 497.92 364.31 645.19 645.19 792.47 926.08 645.19 645.19 926.08 497.92 645.19 645.19 364.31 792.47 645.19 645.19 635.31 634.36 645.19 645.19 655.08 656.03 645.19 645.19 656.03 635.31 645.19 645.19 634.36 655.08 645.19 645.19 189.24 619.85 645.19 645.19 1101.15 670.54 645.19 645.19 670.54 189.24 645.19 645.19 619.85 1101.15 645.19 645.19 177.4 239.56 645.19 645.19 1112.99 1050.83 645.19 645.19 1050.83 177.4 645.19 645.19 239.56 1112.99 645.19 645.19 445.83 619.23 645.19 645.19 844.56 671.16 645.19 645.19 671.16 445.83 645.19 645.19 619.23 844.56 645.19 645.19 594.01 625.56 645.19 645.19 696.38 664.83 645.19 645.19 664.83 594.01 645.19 645.19 625.56 696.38 645.19 645.19 589.58 659.7 645.19 645.19 700.81 630.69 645.19 645.19 630.69 589.58 645.19 645.19 659.7 700.81 645.19 645.19 428.34 369.4 645.19 645.19 862.05 920.99 645.19 645.19 920.99 428.34 645.19 645.19 369.4 862.05 645.19 645.19 371.9 286.07 645.19 645.19 918.49 1004.32 645.19 645.19 1004.32 371.9 645.19 645.19 286.07 918.49 645.19 645.19 520.99 676.04 645.19 645.19 769.4 614.35 645.19 645.19 614.35 520.99 645.19 645.19 676.04 769.4 645.19 645.19 216.54 654.91 645.19 645.19 1073.85 635.48 645.19 645.19 635.48 216.54 645.19 645.19 654.91 1073.85 645.19 645.19 500.05 517.79 645.19 645.19 790.34 772.59 645.19 645.19 772.59 500.05 645.19 645.19 517.79 790.34 645.19 645.19 388.83 505.68 645.19 645.19 901.56 784.71 645.19 645.19 784.71 388.83 645.19 645.19 505.68 901.56 645.19 645.19 0.21 782.76 645.19 645.19 1290.18 507.63 645.19 645.19 507.63 0.21 645.19 645.19 782.76 1290.18 645.19 645.19 352.22 567.03 645.19 645.19 938.17 723.35 645.19 645.19 723.35 352.22 645.19 645.19 567.03 938.17"/><circle class="cls-11" cx="738.68" cy="560.98" r="203.89"/><circle class="cls-12" cx="720.21" cy="577.62" r="13.3"/><circle class="cls-13" cx="631.64" cy="657.41" r="9.69"/><circle class="cls-14" cx="722.85" cy="575.25" r="33.53"/><circle class="cls-15" cx="627.86" cy="660.81" r="22.71"/><circle class="cls-16" cx="699.73" cy="596.07" r="4.14"/></g></g></g></svg>