<svg id="Layer_1" data-name="Layer 1" xmlns="http://www.w3.org/2000/svg" viewBox="0 0 1965 1141"><defs><style>.cls-1{fill:#fff136;}</style></defs><path class="cls-1" d="M548.33,1115.32a3.76,3.76,0,0,1,.31.52c.31.71.64,1.43,1,2.16,4.32-.06,8.65-.25,13-.67,3.46-.33,9.5-.83,14.28-2.56C567.34,1114.65,557.84,1115,548.33,1115.32Z"/><path class="cls-1" d="M960.16,467.32Q922.41,446.11,884,425A9054.14,9054.14,0,0,0,0,0V1080H140.05a5.3,5.3,0,0,1,1.89-.34c22.27,0,44.54.23,66.81.54l18.22-.06c7.63-.27,15.22-.65,22.82,0q49.1,0,98.19.26a5.19,5.19,0,0,1,2-.37h19.58a4.09,4.09,0,0,1,2.14,0h75.28c15.59,0,31.16-.13,46.75-.5,15.19-.35,30.4-.49,45.52,1.18a5.51,5.51,0,0,1,4.52,7.19,92.09,92.09,0,0,1,11.79,1.16,4.71,4.71,0,0,1,3.62,4.68c4.48.17,9,.46,13.43.93,5.61.59,6.81,7.88,1.33,9.82q-.46.16-1,.3c5.21,0,10.42.11,15.63.43a5.07,5.07,0,0,1,4.83,6.33c-3,11.19-16.72,14-26.58,15.32-4.58.61-9.2.93-13.82,1.08a13.88,13.88,0,0,1-.23,5.33,8.4,8.4,0,0,1-1.19,2.65,5.26,5.26,0,0,1,1.88,5.1H1965V457C1858.51,424.75,1434.24,307.37,960.16,467.32Z"/></svg>