<svg id="Layer_1" data-name="Layer 1" xmlns="http://www.w3.org/2000/svg" xmlns:xlink="http://www.w3.org/1999/xlink" viewBox="0 0 1920 1080"><defs><style>.cls-1{fill:url(#linear-gradient);}</style><linearGradient id="linear-gradient" x1="279.39" y1="1086.74" x2="1077.46" y2="445.65" gradientUnits="userSpaceOnUse"><stop offset="0" stop-color="#00944c"/><stop offset="0.15" stop-color="#00a054"/><stop offset="0.41" stop-color="#00c16b"/><stop offset="0.55" stop-color="#00d478"/><stop offset="0.67" stop-color="#11e58b"/><stop offset="0.82" stop-color="#2affa9"/><stop offset="0.92" stop-color="#2affa9"/></linearGradient></defs><path class="cls-1" d="M0,1080V0C14.81,26.16,41.23,63.83,86,89c48.64,27.35,74.57,15,166,38,74.21,18.67,127.79,44.6,150,56,72.3,37.13,118.92,78,129,87,74,66,80.8,109.05,119,149,73,76.38,163,39.09,377,58,160.75,14.21,427.49,37.78,533,202,34.88,54.28,21.9,76.87,66,124,83.88,89.65,186.24,67.13,252,154,18.56,24.51,38,62.74,42,123"/></svg>